<?xml version="1.0" encoding="UTF-8" standalone="no"?>
<!-- Created with Inkscape (http://www.inkscape.org/) -->

<svg
   xmlns:dc="http://purl.org/dc/elements/1.1/"
   xmlns:cc="http://creativecommons.org/ns#"
   xmlns:rdf="http://www.w3.org/1999/02/22-rdf-syntax-ns#"
   xmlns:svg="http://www.w3.org/2000/svg"
   xmlns="http://www.w3.org/2000/svg"
   xmlns:sodipodi="http://sodipodi.sourceforge.net/DTD/sodipodi-0.dtd"
   xmlns:inkscape="http://www.inkscape.org/namespaces/inkscape"
   width="50"
   height="50"
   viewBox="0 0 13.229165 13.229167"
   version="1.1"
   id="svg8"
   inkscape:version="0.92.4 (unknown)"
   sodipodi:docname="pyDeltaRCM_logo.svg">
  <defs
     id="defs2" />
  <sodipodi:namedview
     id="base"
     pagecolor="#ffffff"
     bordercolor="#666666"
     borderopacity="1.0"
     inkscape:pageopacity="0.0"
     inkscape:pageshadow="2"
     inkscape:zoom="11.2"
     inkscape:cx="12.516301"
     inkscape:cy="24.172258"
     inkscape:document-units="px"
     inkscape:current-layer="layer1"
     showgrid="false"
     units="px"
     inkscape:window-width="1871"
     inkscape:window-height="1025"
     inkscape:window-x="49"
     inkscape:window-y="27"
     inkscape:window-maximized="1"
     fit-margin-top="0"
     fit-margin-left="0"
     fit-margin-right="0"
     fit-margin-bottom="0"
     showguides="true"
     inkscape:guide-bbox="true" />
  <metadata
     id="metadata5">
    <rdf:RDF>
      <cc:Work
         rdf:about="">
        <dc:format>image/svg+xml</dc:format>
        <dc:type
           rdf:resource="http://purl.org/dc/dcmitype/StillImage" />
        <dc:title></dc:title>
      </cc:Work>
    </rdf:RDF>
  </metadata>
  <g
     inkscape:label="Layer 1"
     inkscape:groupmode="layer"
     id="layer1"
     transform="translate(-6.5597573,-264.75053)">
    <path
       style="fill:#b3b3b3;fill-opacity:1;stroke:none;stroke-width:0.95544958px;stroke-linecap:butt;stroke-linejoin:miter;stroke-opacity:1"
       d="M 37.707031 0.22265625 L 37.646484 4.4628906 L 0 4.4628906 L 0 11.982422 C 0 11.982422 1.1442242 12.224275 2.109375 13.189453 C 3.0745118 14.154556 2.8317317 14.154155 2.2285156 16.205078 C 1.6252966 18.256114 3.677573 17.773444 5.7285156 19.341797 C 7.7794594 20.910188 9.1057676 21.996094 9.7089844 22.599609 C 10.312199 23.202822 8.9842249 25.855816 9.4667969 28.027344 C 9.9493719 30.198985 11.277333 28.993843 12.845703 28.751953 C 14.414069 28.510819 16.586376 28.630859 18.275391 28.630859 C 19.964401 28.630859 19.11884 29.114604 20.083984 31.044922 C 21.049174 32.975202 19.963793 32.009431 20.205078 32.974609 C 20.446367 33.939712 21.169322 34.180559 21.53125 35.990234 C 21.893181 37.799721 22.376953 38.162109 22.376953 38.162109 C 22.376953 38.162109 23.944981 39.007853 26.478516 39.490234 C 29.012028 39.972767 27.805578 36.956277 29.615234 36.232422 C 31.424887 35.508756 31.666295 36.714837 33.837891 35.146484 C 36.009471 33.578094 36.008559 36.714812 36.732422 38.283203 C 37.456288 39.851556 37.215295 39.610136 37.335938 41.902344 C 37.456584 44.194854 37.940044 42.625982 39.146484 43.953125 C 40.352959 45.280155 39.507956 44.918278 40.59375 47.089844 C 41.679548 49.261485 43.702298 47.941001 47.074219 49.261719 C 47.448675 49.40844 47.96813 49.650286 48.458984 49.763672 C 48.949839 49.877058 50 50 50 50 L 50 4.3964844 C 48.789633 4.4100907 47.548076 4.4326544 46.273438 4.4628906 L 46.273438 0.22265625 L 37.707031 0.22265625 z M 24.775391 8.6777344 C 26.556818 8.6777344 27.864822 9.2118193 28.697266 10.277344 C 29.529709 11.342868 29.945312 12.756722 29.945312 14.521484 C 29.945312 16.286272 29.529709 17.710789 28.697266 18.792969 C 27.864822 19.875148 26.556818 20.416016 24.775391 20.416016 C 23.709864 20.416016 22.54461 19.916898 21.279297 18.917969 L 21.279297 24.486328 L 19.255859 24.486328 L 19.255859 8.953125 L 21.279297 8.953125 L 21.279297 10.376953 C 21.895304 9.8108807 22.462401 9.3865519 22.978516 9.1035156 C 23.49463 8.8205046 24.092788 8.6777344 24.775391 8.6777344 z M 31.394531 8.953125 L 33.716797 8.953125 L 37.212891 17.34375 L 40.458984 8.953125 L 42.630859 8.953125 L 37.287109 22.539062 C 37.020726 23.22167 36.695424 23.738284 36.3125 24.087891 C 35.929578 24.437522 35.364435 24.611328 34.615234 24.611328 C 33.283326 24.611328 32.285096 23.936451 31.619141 22.587891 L 33.191406 21.763672 C 33.541033 22.47959 34.007134 22.837891 34.589844 22.837891 C 34.822915 22.837891 35.022952 22.712591 35.189453 22.462891 C 35.355929 22.22982 35.531693 21.855951 35.714844 21.339844 L 36.164062 20.066406 L 31.394531 8.953125 z M 24.550781 10.076172 C 23.435309 10.076172 22.61089 10.502479 22.078125 11.351562 C 21.545363 12.200646 21.279297 13.256174 21.279297 14.521484 C 21.279297 15.78682 21.545363 16.844276 22.078125 17.693359 C 22.61089 18.525813 23.435309 18.943359 24.550781 18.943359 C 25.632958 18.943359 26.439894 18.525813 26.972656 17.693359 C 27.522069 16.844276 27.796875 15.78682 27.796875 14.521484 C 27.796875 13.272829 27.522069 12.224084 26.972656 11.375 C 26.439894 10.509261 25.632958 10.076172 24.550781 10.076172 z "
       transform="matrix(0.26458332,0,0,0.26458332,6.5597573,264.75053)"
       id="path5764" />
    <g
       aria-label="py"
       style="font-style:normal;font-variant:normal;font-weight:normal;font-stretch:normal;font-size:6.76609659px;line-height:1.25;font-family:'Nimbus Roman No9 L';-inkscape-font-specification:'Nimbus Roman No9 L';letter-spacing:0px;word-spacing:0px;fill:#000000;fill-opacity:1;stroke:none;stroke-width:0.42288104"
       id="text818" />
  </g>
</svg>
