<svg width="50" height="50" version="1.1" viewBox="0 0 13.23 13.23" xmlns="http://www.w3.org/2000/svg">
<g transform="translate(-6.56 -264.8)">
<path transform="matrix(.2646 0 0 .2646 6.56 264.8)" d="m37.71 0.2227-0.06055 4.24h-37.65v7.52s1.144 0.2419 2.109 1.207c0.9651 0.9651 0.7224 0.9647 0.1191 3.016-0.6032 2.051 1.449 1.568 3.5 3.137 2.051 1.568 3.377 2.654 3.98 3.258 0.6032 0.6032-0.7248 3.256-0.2422 5.428 0.4826 2.172 1.811 0.9665 3.379 0.7246 1.568-0.2411 3.741-0.1211 5.43-0.1211 1.689 0 0.8434 0.4837 1.809 2.414 0.9652 1.93-0.1202 0.9645 0.1211 1.93 0.2413 0.9651 0.9642 1.206 1.326 3.016 0.3619 1.809 0.8457 2.172 0.8457 2.172s1.568 0.8457 4.102 1.328c2.534 0.4825 1.327-2.534 3.137-3.258 1.81-0.7237 2.051 0.4824 4.223-1.086 2.172-1.568 2.171 1.568 2.895 3.137 0.7239 1.568 0.4829 1.327 0.6035 3.619 0.1206 2.293 0.6041 0.7236 1.811 2.051 1.206 1.327 0.3615 0.9652 1.447 3.137 1.086 2.172 3.109 0.8512 6.48 2.172 0.3745 0.1467 0.8939 0.3886 1.385 0.502 0.4909 0.1134 1.541 0.2363 1.541 0.2363v-45.6c-1.21 0.01361-2.452 0.03617-3.727 0.06641v-4.24h-8.566zm-12.93 8.455c1.781 0 3.089 0.5341 3.922 1.6 0.8324 1.066 1.248 2.479 1.248 4.244 0 1.765-0.4156 3.189-1.248 4.271-0.8324 1.082-2.14 1.623-3.922 1.623-1.066 0-2.231-0.4991-3.496-1.498v5.568h-2.023v-15.53h2.023v1.424c0.616-0.5661 1.183-0.9904 1.699-1.273 0.5161-0.283 1.114-0.4258 1.797-0.4258zm6.619 0.2754h2.322l3.496 8.391 3.246-8.391h2.172l-5.344 13.59c-0.2664 0.6826-0.5917 1.199-0.9746 1.549-0.3829 0.3496-0.9481 0.5234-1.697 0.5234-1.332 0-2.33-0.6749-2.996-2.023l1.572-0.8242c0.3496 0.7159 0.8157 1.074 1.398 1.074 0.2331 0 0.4331-0.1253 0.5996-0.375 0.1665-0.2331 0.3422-0.6069 0.5254-1.123l0.4492-1.273-4.77-11.11zm-6.844 1.123c-1.115 0-1.94 0.4263-2.473 1.275-0.5328 0.8491-0.7988 1.905-0.7988 3.17 0 1.265 0.2661 2.323 0.7988 3.172 0.5328 0.8325 1.357 1.25 2.473 1.25 1.082 0 1.889-0.4175 2.422-1.25 0.5494-0.8491 0.8242-1.907 0.8242-3.172 0-1.249-0.2748-2.297-0.8242-3.146-0.5328-0.8657-1.34-1.299-2.422-1.299z" fill="#b3b3b3"/>
</g>
</svg>
